# xmcd CD database file
#
# Track frame offsets:
#	150
#	22240
#	40157
#
# Disc length: 833 seconds
#
# Revision: 0
# Processed by: cddbd v1.5PL3 Copyright (c) Steve Scherf et al.
# Submitted via: CDex 1.50
#
DISCID=20033f03
DTITLE=r.o.r/s - Candy Lie
DYEAR=2003
DGENRE=Vocal
TTITLE0=Candy Lie
TTITLE1=Deep Deep
TTITLE2=Candy Lie (STKG 100 Mix)
EXTD=YEAR: 2003/08/27
EXTT0=
EXTT1=
EXTT2=
PLAYORDER=
